<?xml version="1.0" encoding="UTF-8"?>
<svg id="Layer_2" data-name="Layer 2" xmlns="http://www.w3.org/2000/svg" viewBox="0 0 80.93 47.98">
  <defs>
    <style>
      .cls-1 {
        fill: #2e3440;
      }
    </style>
  </defs>
  <g id="svg6736">
    <g id="layer1">
      <g id="g11904">
        <path id="path11906" class="cls-1" d="M23.68,15.62c0,.59-.35,.94-.94,.94h-5.9c-.65,0-.94-.35-.94-.94v-4.72c0-1.54-.83-2.36-2.36-2.36h-3.07c-1.59,0-2.36,.83-2.36,2.36v26.93c0,1.59,.83,2.36,2.36,2.36h3.07c1.54,0,2.36-.77,2.36-2.36v-4.72c0-.59,.3-.94,.94-.94h5.9c.59,0,.94,.35,.94,.94v6.38c0,5.55-3.01,8.5-8.5,8.5h-6.61c-5.55,0-8.56-2.95-8.56-8.5V9.25C0,3.7,3.01,.74,8.56,.74h6.61c5.49,0,8.5,2.95,8.5,8.5v6.38Z"/>
        <g id="g11908">
          <path id="path11910" class="cls-1" d="M29.05,.94c0-.59,.3-.94,.95-.94h14.17c5.55,0,8.5,3.01,8.5,8.56v30.18c0,5.55-2.95,8.5-8.5,8.5h-14.17c-.65,0-.95-.29-.95-.94,0,0,0-45.35,0-45.35Zm13.46,38.5c1.54,0,2.36-.77,2.36-2.36V10.22c0-1.59-.83-2.42-2.36-2.42h-5.43v31.65h5.43Z"/>
        </g>
        <g id="g11912">
          <path id="path11914" class="cls-1" d="M72.42,.19c5.55,0,8.5,2.95,8.5,8.5v6.26c0,.59-.29,.95-.95,.95h-6.14c-.59,0-.95-.35-.95-.95v-4.6c0-1.54-.77-2.36-2.36-2.36h-2.83c-1.48,0-2.36,.83-2.36,2.36v8.15l14.05,4.6c1,.41,1.53,1.06,1.53,2.18v13.64c0,5.55-2.95,8.5-8.5,8.5h-6.61c-5.49,0-8.5-2.95-8.5-8.5v-6.2c0-.65,.35-.95,.95-.95h6.14c.65,0,.94,.29,.94,.95v4.55c0,1.59,.89,2.36,2.36,2.36h2.83c1.54,0,2.36-.77,2.36-2.36v-7.85l-13.99-4.6c-1.06-.35-1.59-1.06-1.59-2.19V8.7C57.31,3.15,60.32,.19,65.81,.19h6.61Z"/>
        </g>
      </g>
    </g>
  </g>
</svg>